<svg width="83" height="35" viewBox="0 0 83 35" fill="none" xmlns="http://www.w3.org/2000/svg">
    <path d="M9.71685 19.3651C9.5193 19.182 9.26451 19.0899 8.95809 19.0899C8.65166 19.0899 8.41034 19.1809 8.21055 19.3628C8.00515 19.5481 7.90188 19.7944 7.90188 20.094V23.6954C7.58312 23.4147 7.22506 23.185 6.82997 23.0075C6.25977 22.749 5.63571 22.6181 4.9746 22.6181C4.15523 22.6181 3.39983 22.8145 2.72975 23.2017C2.06078 23.5889 1.52763 24.1303 1.146 24.8115C0.763257 25.4928 0.569077 26.2594 0.569077 27.0893C0.569077 27.9192 0.777849 28.6936 1.18866 29.376C1.60059 30.0572 2.17639 30.6009 2.89923 30.9903C3.61871 31.3797 4.42685 31.5783 5.3001 31.5783C6.17335 31.5783 6.97813 31.3797 7.68638 30.9903C8.398 30.6009 8.97043 30.0583 9.38797 29.3771C9.80439 28.6914 10.0154 27.9226 10.0154 27.0893V20.094C10.0154 19.7966 9.91551 19.5514 9.71797 19.3651H9.71685ZM7.61903 28.454C7.38781 28.859 7.06792 29.1796 6.66609 29.4071C6.25977 29.6367 5.79958 29.7532 5.29898 29.7532C4.79838 29.7532 4.34043 29.6367 3.93411 29.4071C3.53004 29.1785 3.20678 28.8567 2.97219 28.4518C2.73648 28.0501 2.6175 27.5919 2.6175 27.0893C2.6175 26.5867 2.73311 26.1407 2.97107 25.7357C3.20566 25.3374 3.52891 25.019 3.93411 24.7905C4.34043 24.5597 4.7995 24.4432 5.29898 24.4432C5.79846 24.4432 6.25977 24.5597 6.66609 24.7905C7.07466 25.0212 7.38557 25.3308 7.61903 25.7335C7.84913 26.1352 7.96586 26.5923 7.96586 27.0893C7.96586 27.5864 7.84913 28.0501 7.61903 28.454Z" fill="#01A6C4"/>
    <path d="M19.116 24.7172C18.7692 24.0571 18.2675 23.5367 17.6243 23.1695C16.9812 22.8045 16.2135 22.6192 15.3413 22.6192C14.4692 22.6192 13.6566 22.8111 12.9551 23.1917C12.2535 23.5711 11.6968 24.1104 11.3006 24.7938C10.9066 25.475 10.708 26.2528 10.708 27.1071C10.708 27.9614 10.919 28.7358 11.3365 29.4159C11.7541 30.0927 12.3422 30.6286 13.0819 31.0081C13.8204 31.3864 14.6623 31.5783 15.5871 31.5783C16.1113 31.5783 16.6635 31.4862 17.2281 31.3065C17.7983 31.1268 18.2854 30.8882 18.6727 30.5998C18.9656 30.3934 19.0274 30.1382 19.0274 29.9607C19.0274 29.6966 18.8994 29.4625 18.6536 29.2695C18.4931 29.133 18.2787 29.0631 18.0183 29.0631C17.7579 29.0631 17.539 29.1341 17.3471 29.2739C17.1428 29.4226 16.8701 29.5513 16.5378 29.6567C16.2123 29.761 15.8924 29.8142 15.5871 29.8142C14.8115 29.8142 14.1516 29.6079 13.6263 29.2018C13.1661 28.8479 12.8697 28.4085 12.7272 27.8649H18.6559C18.9286 27.8649 19.1609 27.7805 19.3461 27.6152H19.3473C19.5325 27.4455 19.6301 27.2225 19.6301 26.9673C19.6301 26.1296 19.4573 25.373 19.116 24.7172ZM12.7496 26.1929C12.8933 25.6836 13.1616 25.2642 13.5499 24.9447C14.0012 24.5708 14.6039 24.3811 15.3413 24.3811C16.0058 24.3811 16.5277 24.563 16.9352 24.9369C17.2843 25.2565 17.5188 25.6781 17.6356 26.1929H12.7496Z" fill="#01A6C4"/>
    <path d="M26.349 27.1171C25.8203 26.6921 24.9628 26.3715 23.7281 26.1363C23.1624 26.0264 22.7303 25.9133 22.4429 25.8012C22.1118 25.6747 21.976 25.5616 21.9176 25.4883C21.8402 25.3896 21.802 25.2653 21.802 25.1111C21.802 24.9857 21.839 24.8016 22.1589 24.6418C22.4474 24.4998 22.829 24.4277 23.2926 24.4277C23.7 24.4277 24.0514 24.4732 24.3342 24.5619C24.6081 24.6507 24.873 24.8027 25.1199 25.0168C25.3882 25.2465 25.6968 25.363 26.0358 25.363C26.2681 25.363 26.4657 25.3086 26.6217 25.201L26.6318 25.1932C26.8731 25.0068 26.9955 24.7882 26.9955 24.5431C26.9955 24.3278 26.9057 24.1137 26.7283 23.9084C26.3804 23.5035 25.9022 23.1828 25.3085 22.9554C24.7237 22.7324 24.0558 22.6181 23.324 22.6181C22.7235 22.6181 22.15 22.7102 21.6191 22.8921C21.0747 23.0763 20.6246 23.3603 20.2834 23.7365C19.9309 24.1248 19.7525 24.603 19.7525 25.1577C19.7525 26.5124 20.8693 27.4011 23.0726 27.7994C23.8493 27.9392 24.3993 28.1067 24.7091 28.2998C24.9785 28.4662 25.1098 28.6637 25.1098 28.9011C25.1098 29.1386 24.9818 29.3372 24.7068 29.4914C24.3993 29.6656 23.9503 29.7532 23.3734 29.7532C22.9334 29.7532 22.5159 29.6778 22.132 29.5291C21.7526 29.3838 21.4664 29.214 21.2756 29.0176C20.8457 28.6127 20.3473 28.5539 19.7996 28.9355C19.5235 29.1297 19.3776 29.3982 19.3776 29.7144C19.3776 29.9607 19.473 30.1748 19.6604 30.3501C20.0488 30.7174 20.5932 31.018 21.2778 31.2455C21.9513 31.4663 22.6775 31.5783 23.4385 31.5783C24.1995 31.5783 24.8707 31.4618 25.4286 31.2311C25.9943 30.9958 26.4309 30.6641 26.7272 30.2469C27.0235 29.8253 27.1739 29.3516 27.1739 28.839C27.1739 28.1378 26.8967 27.5586 26.349 27.1171Z" fill="#01A6C4"/>
    <path d="M29.6275 19.6491C29.3716 19.4105 29.0652 19.2896 28.7139 19.2896C28.3626 19.2896 28.0528 19.4105 27.8002 19.6491C27.541 19.891 27.4108 20.185 27.4108 20.5234C27.4108 20.8618 27.541 21.1569 27.7991 21.3988C28.0528 21.6373 28.3603 21.7593 28.7139 21.7593C29.0674 21.7593 29.3728 21.6373 29.6275 21.3988C29.8846 21.1558 30.0159 20.8618 30.0159 20.5234C30.0159 20.185 29.8846 19.8921 29.6275 19.6491Z" fill="#01A6C4"/>
    <path d="M29.4715 22.9565C29.2774 22.7734 29.0215 22.6813 28.7139 22.6813C28.4064 22.6813 28.165 22.7723 27.9641 22.9531C27.7598 23.1384 27.6555 23.3847 27.6555 23.6854V30.5121C27.6555 30.7995 27.7587 31.0424 27.9619 31.2333C28.1617 31.4208 28.4142 31.5162 28.7139 31.5162C29.0136 31.5162 29.2807 31.4197 29.4749 31.2299C29.6702 31.0391 29.7701 30.7972 29.7701 30.5121V23.6854C29.7701 23.387 29.6691 23.1418 29.4715 22.9565Z" fill="#01A6C4"/>
    <path d="M39.9191 25.8756C39.8169 25.4872 39.6643 25.1233 39.4611 24.7838C39.0571 24.1081 38.4902 23.5723 37.7764 23.1906C37.0636 22.8111 36.251 22.6192 35.3587 22.6192C34.4663 22.6192 33.6335 22.8111 32.9185 23.1906C32.1968 23.5711 31.6288 24.1081 31.2293 24.7849C30.8308 25.4617 30.6288 26.2428 30.6288 27.1071C30.6288 27.9714 30.8151 28.7336 31.1844 29.406C31.5581 30.085 32.0868 30.622 32.7558 31.0025C33.4258 31.3842 34.1913 31.5783 35.032 31.5783C35.7661 31.5783 36.4362 31.4075 37.0221 31.0724C37.4037 30.8549 37.7382 30.5809 38.0233 30.2525V30.3124C38.0233 30.9182 37.901 31.4419 37.6596 31.8701C37.4183 32.3017 37.1052 32.619 36.7011 32.842C36.3015 33.0628 35.8503 33.1749 35.3587 33.1749C34.8278 33.1749 34.3462 33.0861 33.9287 32.9097C33.5123 32.7322 33.1767 32.4848 32.905 32.153C32.6907 31.8879 32.3977 31.747 32.0587 31.747C31.8668 31.747 31.6737 31.8058 31.4773 31.9245C31.1125 32.1686 31.0351 32.4593 31.0351 32.6601C31.0351 32.8609 31.1125 33.0473 31.2663 33.2326C31.7456 33.7984 32.345 34.2389 33.0487 34.5429C33.7491 34.8458 34.5146 35 35.325 35C36.2297 35 37.0558 34.797 37.7797 34.3953C38.5037 33.9937 39.0739 33.4356 39.4724 32.7389C39.8708 32.0421 40.0728 31.2621 40.0728 30.4189V27.1071C40.0728 26.6744 40.0212 26.2639 39.9191 25.8756ZM37.938 27.836C37.8819 28.0657 37.7977 28.2809 37.6843 28.4795C37.4621 28.8756 37.1456 29.1896 36.7426 29.4137C36.3385 29.6389 35.8727 29.7532 35.3587 29.7532C34.8446 29.7532 34.3788 29.6389 33.9747 29.4137C33.5718 29.1896 33.2519 28.8745 33.0229 28.4773C32.7928 28.079 32.6761 27.6175 32.6761 27.1071C32.6761 26.5967 32.7928 26.1307 33.024 25.7258C33.253 25.323 33.5729 25.0068 33.9758 24.7827C34.3788 24.5575 34.8435 24.4432 35.3587 24.4432C35.8739 24.4432 36.3385 24.5575 36.7426 24.7838C37.1444 25.0068 37.461 25.323 37.6843 25.7247C37.9088 26.1285 38.0233 26.5934 38.0233 27.1071C38.0233 27.3634 37.9952 27.6064 37.938 27.836Z" fill="#01A6C4"/>
    <path d="M49.0556 24.5175C48.6987 23.8951 48.1947 23.4147 47.5605 23.0896C46.9342 22.7668 46.2181 22.6037 45.4313 22.6037C44.8589 22.6037 44.3156 22.6991 43.8184 22.8866C43.4626 23.0197 43.1371 23.1928 42.8486 23.4047C42.8037 23.2294 42.7139 23.0796 42.5815 22.9565C42.3873 22.7734 42.1325 22.6802 41.8238 22.6802C41.5151 22.6802 41.2761 22.7723 41.0763 22.9532C40.8698 23.1395 40.7654 23.3859 40.7654 23.6854V30.5265C40.7654 30.8139 40.8698 31.0558 41.0729 31.2477C41.2727 31.4363 41.5252 31.5306 41.8238 31.5306C42.1224 31.5306 42.3906 31.4352 42.5837 31.2466C42.7812 31.0558 42.8811 30.8139 42.8811 30.5265V26.2006C42.8811 25.8755 42.9721 25.5915 43.1584 25.3308C43.3458 25.0678 43.6118 24.8559 43.9519 24.6984C44.2999 24.5364 44.6781 24.4576 45.1069 24.4576C45.8286 24.4576 46.4123 24.6529 46.8411 25.0379C47.2631 25.4173 47.4775 25.9943 47.4775 26.7532V30.5265C47.4775 30.815 47.5807 31.0569 47.7839 31.2477C47.9837 31.4363 48.2351 31.5306 48.5337 31.5306C48.8322 31.5306 49.0859 31.4363 49.2868 31.2466C49.4889 31.0547 49.5921 30.8117 49.5921 30.5265V26.7532C49.5921 25.8911 49.4114 25.1388 49.0556 24.5175Z" fill="#01A6C4"/>
    <path d="M52.2074 29.5602C51.9414 29.3116 51.6237 29.1852 51.2612 29.1852C50.8987 29.1852 50.5799 29.3116 50.3139 29.5613C50.0456 29.8153 49.9098 30.1249 49.9098 30.481C49.9098 30.8372 50.0456 31.1334 50.315 31.3875C50.5799 31.636 50.8987 31.7625 51.2612 31.7625C51.6237 31.7625 51.9571 31.636 52.2164 31.3853C52.479 31.1334 52.6115 30.8283 52.6115 30.481C52.6115 30.1338 52.4757 29.8153 52.2074 29.5602Z" fill="#01A6C4"/>
    <path d="M82.9955 14.541C82.9955 14.5188 82.9933 14.4911 82.9899 14.4589L82.9843 14.4012C82.9809 14.3546 82.9764 14.3091 82.9708 14.2636V14.1915L82.9596 14.1549C82.8945 13.5369 82.7935 12.9211 82.6588 12.3309C82.6352 12.2255 82.6094 12.1212 82.5847 12.0269C81.7474 8.65292 79.7607 5.59738 76.9928 3.42389C74.1396 1.18383 70.7016 0 67.0503 0C62.0118 0 57.32 2.31994 54.3018 6.25753C51.2803 2.32105 46.5885 0 41.5533 0C37.0198 0 32.6817 1.91165 29.6522 5.24567C29.4244 5.49531 29.1124 5.63399 28.7745 5.63399C28.4367 5.63399 28.1246 5.49531 27.8979 5.24678C24.8673 1.91165 20.5303 0 15.9979 0C12.5375 0 9.20277 1.0984 6.45507 3.121C6.21038 1.4845 4.73664 0.291796 3.04739 0.390541C1.33905 0.493723 0 1.93273 0 3.66687V14.9948H0.0213261C0.0179588 15.0624 0.0145915 15.1301 0.0123467 15.1978V15.22L0.0145915 15.3021C0.175098 16.9552 1.56354 18.2023 3.24605 18.2023C4.81521 18.2023 6.15763 17.0961 6.43711 15.5728L6.44721 15.5184L6.44946 15.463C6.4517 15.3487 6.45844 15.23 6.47191 15.0658L6.47415 14.9293H6.48425C6.70313 12.5983 7.793 10.4381 9.55409 8.84819C11.3264 7.2483 13.6285 6.36626 16.0338 6.36626C20.9299 6.36626 25.0155 9.95768 25.5655 14.7307C25.5576 14.8217 25.5543 14.9093 25.5543 14.9948C25.5543 15.0802 25.5576 15.1734 25.5655 15.261L25.5689 15.3032L25.5722 15.3332L25.5487 15.3565L25.6452 15.7503C25.6542 15.7881 25.6643 15.8258 25.6755 15.8635L25.7002 15.9622L25.7069 15.9678C26.1334 17.2947 27.3748 18.2023 28.7992 18.2023C30.3268 18.2023 31.6625 17.1305 31.9757 15.6538L32.0015 15.5196V15.4652C32.0071 15.2954 32.0194 15.1179 32.0374 14.9382L32.0565 14.744C32.3146 12.4829 33.3899 10.3937 35.0983 8.84597C36.8638 7.24719 39.1558 6.36626 41.5533 6.36626C43.9508 6.36626 46.226 7.24164 47.9882 8.82933C49.7246 10.3937 50.8122 12.5173 51.0558 14.815C51.0524 14.8705 51.0502 14.9304 51.0502 14.9948C51.0502 15.1002 51.0558 15.2011 51.0659 15.3065C51.0782 15.4308 51.0962 15.544 51.1198 15.6516C51.4307 17.1294 52.7675 18.2023 54.2962 18.2023C54.9831 18.2023 55.6409 17.9915 56.1954 17.5943C56.742 17.206 57.1606 16.6446 57.3728 16.0144L57.4098 15.9012V15.8968C57.4783 15.6693 57.5198 15.433 57.5344 15.1989C57.5389 15.1301 57.5411 15.0613 57.5411 14.9948C57.5411 14.7962 57.5232 14.6009 57.4873 14.4112C58.0956 9.6681 62.1835 6.09998 67.0212 6.09998C70.7285 6.09998 74.0857 8.22354 75.6739 11.4777H69.5657C67.7766 11.4777 66.3208 12.9167 66.3208 14.6863C66.3208 16.456 67.7608 17.8761 69.5387 17.8961L79.8202 17.8939C81.5734 17.8595 83 16.4205 83 14.6863C83 14.6475 83 14.5987 82.9955 14.541Z" fill="#01A6C4"/>
    <path d="M77.0792 20.51C76.17 20.51 75.2968 20.8828 74.6806 21.5352C74.6469 21.5685 74.6155 21.604 74.5885 21.6428C74.547 21.6994 74.4965 21.7615 74.4337 21.8337L74.4157 21.8559C74.3843 21.8947 74.3528 21.9324 74.3214 21.9701L74.3035 21.9901C72.4705 24.0926 69.816 25.2986 67.0212 25.2986C64.2263 25.2986 61.5617 24.0893 59.731 21.9801L59.7063 21.9535C59.6648 21.9047 59.6221 21.8547 59.5828 21.8048L59.5649 21.7826C59.5391 21.7527 59.5155 21.7216 59.4919 21.6905L59.4437 21.6295C58.8252 20.9183 57.9273 20.51 56.9788 20.51C55.1897 20.51 53.7339 21.949 53.7339 23.7176C53.7339 24.2901 53.8876 24.8504 54.1772 25.3374L54.2199 25.3996C54.3748 25.607 54.5229 25.7934 54.6655 25.961C57.7151 29.6511 62.2295 31.768 67.0503 31.768C71.8711 31.768 76.4585 29.6178 79.5126 25.8689L79.8886 25.363C80.1917 24.8681 80.3511 24.3045 80.3511 23.7176C80.3511 21.949 78.8829 20.51 77.0792 20.51Z" fill="#01A6C4"/>
</svg>